<?xml version="1.0" standalone="no"?>
<svg xmlns:xlink="http://www.w3.org/1999/xlink" id="wave" style="transform:rotate(180deg); transition: 0.3s" viewBox="0 0 1440 100" version="1.1" xmlns="http://www.w3.org/2000/svg"><defs><linearGradient id="sw-gradient-0" x1="0" x2="0" y1="1" y2="0"><stop stop-color="rgba(212, 216, 240, 1)" offset="0%"/><stop stop-color="rgba(212, 216, 240, 1)" offset="100%"/></linearGradient></defs><path style="transform:translate(0, 0px); opacity:1" fill="url(#sw-gradient-0)" d="M0,40L18.5,46.7C36.9,53,74,67,111,68.3C147.7,70,185,60,222,53.3C258.5,47,295,43,332,43.3C369.2,43,406,47,443,40C480,33,517,17,554,8.3C590.8,0,628,0,665,11.7C701.5,23,738,47,775,60C812.3,73,849,77,886,70C923.1,63,960,47,997,48.3C1033.8,50,1071,70,1108,66.7C1144.6,63,1182,37,1218,31.7C1255.4,27,1292,43,1329,56.7C1366.2,70,1403,80,1440,75C1476.9,70,1514,50,1551,38.3C1587.7,27,1625,23,1662,30C1698.5,37,1735,53,1772,65C1809.2,77,1846,83,1883,85C1920,87,1957,83,1994,75C2030.8,67,2068,53,2105,51.7C2141.5,50,2178,60,2215,55C2252.3,50,2289,30,2326,33.3C2363.1,37,2400,63,2437,70C2473.8,77,2511,63,2548,61.7C2584.6,60,2622,70,2640,75L2658.5,80L2658.5,100L2640,100C2621.5,100,2585,100,2548,100C2510.8,100,2474,100,2437,100C2400,100,2363,100,2326,100C2289.2,100,2252,100,2215,100C2178.5,100,2142,100,2105,100C2067.7,100,2031,100,1994,100C1956.9,100,1920,100,1883,100C1846.2,100,1809,100,1772,100C1735.4,100,1698,100,1662,100C1624.6,100,1588,100,1551,100C1513.8,100,1477,100,1440,100C1403.1,100,1366,100,1329,100C1292.3,100,1255,100,1218,100C1181.5,100,1145,100,1108,100C1070.8,100,1034,100,997,100C960,100,923,100,886,100C849.2,100,812,100,775,100C738.5,100,702,100,665,100C627.7,100,591,100,554,100C516.9,100,480,100,443,100C406.2,100,369,100,332,100C295.4,100,258,100,222,100C184.6,100,148,100,111,100C73.8,100,37,100,18,100L0,100Z"/></svg>