<?xml version="1.0" standalone="no"?>
<svg xmlns:xlink="http://www.w3.org/1999/xlink" id="wave" style="transform:rotate(180deg); transition: 0.3s" viewBox="0 0 1440 100" version="1.1" xmlns="http://www.w3.org/2000/svg"><defs><linearGradient id="sw-gradient-0" x1="0" x2="0" y1="1" y2="0"><stop stop-color="rgba(35, 41, 70, 1)" offset="0%"/><stop stop-color="rgba(35, 41, 70, 1)" offset="100%"/></linearGradient></defs><path style="transform:translate(0, 0px); opacity:1" fill="url(#sw-gradient-0)" d="M0,70L80,71.7C160,73,320,77,480,78.3C640,80,800,80,960,73.3C1120,67,1280,53,1440,50C1600,47,1760,53,1920,51.7C2080,50,2240,40,2400,30C2560,20,2720,10,2880,8.3C3040,7,3200,13,3360,20C3520,27,3680,33,3840,35C4000,37,4160,33,4320,35C4480,37,4640,43,4800,51.7C4960,60,5120,70,5280,68.3C5440,67,5600,53,5760,46.7C5920,40,6080,40,6240,45C6400,50,6560,60,6720,60C6880,60,7040,50,7200,48.3C7360,47,7520,53,7680,61.7C7840,70,8000,80,8160,81.7C8320,83,8480,77,8640,73.3C8800,70,8960,70,9120,65C9280,60,9440,50,9600,38.3C9760,27,9920,13,10080,15C10240,17,10400,33,10560,33.3C10720,33,10880,17,11040,10C11200,3,11360,7,11440,8.3L11520,10L11520,100L11440,100C11360,100,11200,100,11040,100C10880,100,10720,100,10560,100C10400,100,10240,100,10080,100C9920,100,9760,100,9600,100C9440,100,9280,100,9120,100C8960,100,8800,100,8640,100C8480,100,8320,100,8160,100C8000,100,7840,100,7680,100C7520,100,7360,100,7200,100C7040,100,6880,100,6720,100C6560,100,6400,100,6240,100C6080,100,5920,100,5760,100C5600,100,5440,100,5280,100C5120,100,4960,100,4800,100C4640,100,4480,100,4320,100C4160,100,4000,100,3840,100C3680,100,3520,100,3360,100C3200,100,3040,100,2880,100C2720,100,2560,100,2400,100C2240,100,2080,100,1920,100C1760,100,1600,100,1440,100C1280,100,1120,100,960,100C800,100,640,100,480,100C320,100,160,100,80,100L0,100Z"/></svg>