<?xml version="1.0" standalone="no"?>
<svg xmlns:xlink="http://www.w3.org/1999/xlink" id="wave" style="transform:rotate(180deg); transition: 0.3s" viewBox="0 0 1440 100" version="1.1" xmlns="http://www.w3.org/2000/svg"><defs><linearGradient id="sw-gradient-0" x1="0" x2="0" y1="1" y2="0"><stop stop-color="rgba(35, 41, 70, 1)" offset="0%"/><stop stop-color="rgba(35, 41, 70, 1)" offset="100%"/></linearGradient></defs><path style="transform:translate(0, 0px); opacity:1" fill="url(#sw-gradient-0)" d="M0,80L30,75C60,70,120,60,180,56.7C240,53,300,57,360,63.3C420,70,480,80,540,85C600,90,660,90,720,85C780,80,840,70,900,56.7C960,43,1020,27,1080,16.7C1140,7,1200,3,1260,3.3C1320,3,1380,7,1440,21.7C1500,37,1560,63,1620,70C1680,77,1740,63,1800,51.7C1860,40,1920,30,1980,31.7C2040,33,2100,47,2160,56.7C2220,67,2280,73,2340,71.7C2400,70,2460,60,2520,51.7C2580,43,2640,37,2700,30C2760,23,2820,17,2880,15C2940,13,3000,17,3060,25C3120,33,3180,47,3240,46.7C3300,47,3360,33,3420,28.3C3480,23,3540,27,3600,36.7C3660,47,3720,63,3780,60C3840,57,3900,33,3960,26.7C4020,20,4080,30,4140,41.7C4200,53,4260,67,4290,73.3L4320,80L4320,100L4290,100C4260,100,4200,100,4140,100C4080,100,4020,100,3960,100C3900,100,3840,100,3780,100C3720,100,3660,100,3600,100C3540,100,3480,100,3420,100C3360,100,3300,100,3240,100C3180,100,3120,100,3060,100C3000,100,2940,100,2880,100C2820,100,2760,100,2700,100C2640,100,2580,100,2520,100C2460,100,2400,100,2340,100C2280,100,2220,100,2160,100C2100,100,2040,100,1980,100C1920,100,1860,100,1800,100C1740,100,1680,100,1620,100C1560,100,1500,100,1440,100C1380,100,1320,100,1260,100C1200,100,1140,100,1080,100C1020,100,960,100,900,100C840,100,780,100,720,100C660,100,600,100,540,100C480,100,420,100,360,100C300,100,240,100,180,100C120,100,60,100,30,100L0,100Z"/></svg>